<svg xmlns="http://www.w3.org/2000/svg" viewBox="0 0 100.38 145.29"><defs><style>.cls-1{fill:#fff;}</style></defs><title>Asset 2</title><g id="Layer_2" data-name="Layer 2"><g id="Layer_1-2" data-name="Layer 1"><path class="cls-1" d="M1.5,60q.6-.48,4-.48,5.34,0,8.07,1.86t3.87,6.36a11.42,11.42,0,0,1,.48,2.94q0,2.28-2.34,5.64a7.26,7.26,0,0,0-1.08,1.56,7.93,7.93,0,0,0,.78,1,13.62,13.62,0,0,1,4,9.36,8.45,8.45,0,0,1-2.76,6.54,9.67,9.67,0,0,1-3.24,1.71,11.64,11.64,0,0,1-3.72.75,3,3,0,0,1-1.62-.48q-.78-.48-.78-1t.84-1a4.74,4.74,0,0,1,2-.63,10.55,10.55,0,0,0,3.36-1,5,5,0,0,0,3.06-4.68,3.29,3.29,0,0,0,0-.36,3.07,3.07,0,0,1,0-.36,11.31,11.31,0,0,0-3.42-6.66q-2-2-2-2.76a3.48,3.48,0,0,1,.84-1.86,27.8,27.8,0,0,0,1.92-3.06,6.6,6.6,0,0,0,.9-2.82c0-.08,0-.24,0-.48s0-.44,0-.6q-.48-5.94-5.46-7a12.32,12.32,0,0,0-3-.36q-1.32,0-1.5.3-.36.54-.54,17.46v2.64q0,5.1.18,8t.12,3.3a3.86,3.86,0,0,1-.3,1.92,2.11,2.11,0,0,1-1.38.6,5.21,5.21,0,0,1-.78.12q-.84,0-1.05-1.77T.24,85.13q-.06-1.8-.12-3.75t-.09-3q0-1,0-1.77,0-1.2.06-2.22t.21-3q.15-2,.27-4.5.18-4.44.33-5.46A2.3,2.3,0,0,1,1.5,60Z"/><path class="cls-1" d="M29.64,60a1.64,1.64,0,0,1,1.08-.24,12.37,12.37,0,0,1,2.94.42,7.83,7.83,0,0,1,2.46,1,8,8,0,0,1,2.73,3.57,13.1,13.1,0,0,1,1.05,5.25c0,.12,0,.29,0,.51s0,.39,0,.51A11.11,11.11,0,0,1,37,77.81a10.72,10.72,0,0,0-1.32,1.56q0,.18,1.71,4.83t2.55,6.75a15.12,15.12,0,0,1,1.2,3.78,1.67,1.67,0,0,1-.36,1,1,1,0,0,1-.9.48q-1,0-1.68-1.56t-2.88-8.19a62.36,62.36,0,0,1-2.16-7.23,4.56,4.56,0,0,1,1.26-2.46,19.41,19.41,0,0,0,2-3,5.9,5.9,0,0,0,.48-2.52c0-.12,0-.3,0-.54s0-.44,0-.6q-.24-5.28-3.42-6.9a4.63,4.63,0,0,0-1.86-.6q-.12,0-1.8.24l-2.16.48.12,4.92q.36,8.4.66,12.42.36,5,.36,8.28,0,6.72-1.8,6.72a1.13,1.13,0,0,1-1-.6q-.24-.66-.48-16.74-.06-4.32-.06-10.08,0-3.12,0-4.65a4.54,4.54,0,0,1,.48-2.25c.3-.48.52-.74.66-.78a13.42,13.42,0,0,1,1.35-.18A5.44,5.44,0,0,0,29.64,60Z"/><path class="cls-1" d="M47.82,61.31q.48-1.08,1.32-1.08l.18,0a.93.93,0,0,0,.24,0,3.11,3.11,0,0,0,1,.12q.84,0,.84,3.48,0,.72-.12,3.84-.3,5-.54,16.26-.18,8.46-.39,10.23t-1,1.77L49,96l-.27,0a1.19,1.19,0,0,1-.93-.45,5.61,5.61,0,0,1-.42-2.1q-.15-1.71-.15-5.67,0-5.46.06-9.54Q47.52,62,47.82,61.31Z"/><path class="cls-1" d="M67.26,60.65a1.8,1.8,0,0,1,1-.3,1.58,1.58,0,0,1,1.32.78,16.38,16.38,0,0,1,1.38,4.08q1.92,6.6,5.1,19.44Q78.36,93.83,78.36,95a.93.93,0,0,1-.18.66,1.82,1.82,0,0,1-1.44.72,1.89,1.89,0,0,1-.54-.12,3,3,0,0,1-.69-1.41q-.39-1.23-1.77-6.63-1-3.84-1.74-6.18-.48-1.5-2.1-8.52-1.38-6.06-1.74-6.42H68.1q-.54,0-3.06,10.74Q61.8,91.73,60.42,95q-.6,1.32-1.26,1.32a2.31,2.31,0,0,1-1-.3q-.54-.24-.54-1.2a9.79,9.79,0,0,1,.3-1.86q.3-1.08,1.2-5.46.54-2.7,1.74-7t2.85-9.78q1.65-5.52,2.19-7.44Q66.66,61,67.26,60.65Z"/><path class="cls-1" d="M88.92,60A1.64,1.64,0,0,1,90,59.75a12.37,12.37,0,0,1,2.94.42,7.83,7.83,0,0,1,2.46,1,8,8,0,0,1,2.73,3.57,13.1,13.1,0,0,1,1.05,5.25c0,.12,0,.29,0,.51s0,.39,0,.51a11.11,11.11,0,0,1-2.88,6.84,10.72,10.72,0,0,0-1.32,1.56q0,.18,1.71,4.83t2.55,6.75a15.12,15.12,0,0,1,1.2,3.78,1.67,1.67,0,0,1-.36,1,1,1,0,0,1-.9.48q-1,0-1.68-1.56t-2.88-8.19a62.36,62.36,0,0,1-2.16-7.23,4.56,4.56,0,0,1,1.26-2.46,19.41,19.41,0,0,0,2-3,5.9,5.9,0,0,0,.48-2.52c0-.12,0-.3,0-.54s0-.44,0-.6q-.24-5.28-3.42-6.9a4.63,4.63,0,0,0-1.86-.6q-.12,0-1.8.24l-2.16.48.12,4.92q.36,8.4.66,12.42Q88,85.73,88,89q0,6.72-1.8,6.72a1.13,1.13,0,0,1-1-.6q-.24-.66-.48-16.74Q84.6,74,84.6,68.27q0-3.12,0-4.65a4.54,4.54,0,0,1,.48-2.25c.3-.48.52-.74.66-.78a13.42,13.42,0,0,1,1.35-.18A5.44,5.44,0,0,0,88.92,60Z"/><path class="cls-1" d="M45.45,1.38A28.34,28.34,0,0,1,50.07,1a5.6,5.6,0,0,1,1.8.18c.32.12.48.44.48,1a3.45,3.45,0,0,1-.51,1.68,1.82,1.82,0,0,1-1.17,1q-.36.06-2.76.3A20.34,20.34,0,0,0,36.39,9.87a20.12,20.12,0,0,0-6.78,10.47,20.14,20.14,0,0,0-.42,4.74,20,20,0,0,0,.48,5.1,21.85,21.85,0,0,0,9.42,13q1.8,1.26,2.43,1.8a1.45,1.45,0,0,1,.63,1,1.9,1.9,0,0,1-.24.66.66.66,0,0,1-.42.24,10.28,10.28,0,0,1-1.86-.66,21.53,21.53,0,0,1-9.78-8.34,22.64,22.64,0,0,1-3.66-12.48,15.85,15.85,0,0,1,.06-1.62,26.94,26.94,0,0,1,2.64-10.56,22.22,22.22,0,0,1,6.78-7.68A22.17,22.17,0,0,1,45.45,1.38ZM56.61,1q.48-1,.72-1t.18,2.76V5.52a13.28,13.28,0,0,0,1,4.86,43.59,43.59,0,0,0,2.76,5.52,26,26,0,0,1,2,4.08,28.92,28.92,0,0,1,1,4.44,17.37,17.37,0,0,1,.18,2.46,12.51,12.51,0,0,1-4,9.06,20.1,20.1,0,0,1-5.46,3.48q-5.16,2.46-6.24,3.12a7.25,7.25,0,0,0-2.1,2.16,11.3,11.3,0,0,0-1.68,3q-.48,1.38-.84,1.38a.48.48,0,0,1-.36-.24,1.19,1.19,0,0,1-.18-.72,14.53,14.53,0,0,1,.84-3.78Q45,42.18,45,42q0-.36-1.8-1.26a18.35,18.35,0,0,1-3.69-2.58A12.76,12.76,0,0,1,36.69,35a10.35,10.35,0,0,1-1-4.62v-1a15.17,15.17,0,0,1,5.58-11.88,68.26,68.26,0,0,0,7.86-7.8q1.26-1.5,1.74-1.5c.16,0,.24.14.24.42a7.15,7.15,0,0,1-1.08,3,8.37,8.37,0,0,0-1,2.16q0,.18,1.08.48a6.69,6.69,0,0,1,3.27,1.86,12.88,12.88,0,0,1,2.79,3.6A7.53,7.53,0,0,1,56.79,23a5.57,5.57,0,0,1-.36,2.34c-.2.32-.36.48-.48.48q-.42,0-.42-1.86A8.45,8.45,0,0,0,55,20.82a7.25,7.25,0,0,0-1.74-2.34,7.49,7.49,0,0,0-5.22-2.1,6.92,6.92,0,0,0-3.24.78,10.9,10.9,0,0,0-2.94,2.37,14,14,0,0,0-2.4,3.21,15.32,15.32,0,0,0-1.68,6.66,7,7,0,0,0,.66,3.18q1.2,2.34,1.8,2.34T41,33.36a8.55,8.55,0,0,1,1.59-3.9,8.18,8.18,0,0,1,3.09-2.76A7.75,7.75,0,0,0,48.09,25q.84-1,1.2-.54a2.58,2.58,0,0,1,.3,1.44,1.62,1.62,0,0,0,1,1.44A3.14,3.14,0,0,1,52,28.74a2.34,2.34,0,0,1,.24.9c0,.24-.08.36-.24.36a.9.9,0,0,1-.54-.24,6.83,6.83,0,0,0-3.66-1.62,3.7,3.7,0,0,0-2.58,1.14,6.09,6.09,0,0,0-2.16,4.62,5,5,0,0,0,1,3.06,4.16,4.16,0,0,0,3.48,1.62,14.59,14.59,0,0,0,2.4-.3,15,15,0,0,0,7.14-3.36,12.55,12.55,0,0,0,4-6.12,11.72,11.72,0,0,0,.48-3.06q0-2.94-2.52-8.52-2.94-6.54-3.36-9.72a13.85,13.85,0,0,1-.18-2.16A10,10,0,0,1,56.61,1Zm3.48,3.42q.3-.6.66-.6.54,0,3.36,1.92a25.23,25.23,0,0,1,6.06,5.94,23.82,23.82,0,0,1,4,14,19.48,19.48,0,0,1-.9,6.36,23.94,23.94,0,0,1-2.49,5.28,26.16,26.16,0,0,1-4,4.68,22.63,22.63,0,0,1-5.94,4.26,23.45,23.45,0,0,1-10.2,2.58,11.2,11.2,0,0,1-2.31-.15q-.57-.15-.57-.63a1.82,1.82,0,0,1,.06-.54.94.94,0,0,1,.72-.66,27.11,27.11,0,0,1,3.24-.48,24.66,24.66,0,0,0,7.5-2,22.1,22.1,0,0,0,6.12-4.47,20.87,20.87,0,0,0,6.36-14.1c0-.16,0-.4,0-.72s0-.54,0-.66a17.58,17.58,0,0,0-2.4-8.1,20.45,20.45,0,0,0-3.9-5.1,38,38,0,0,0-4-3.42q-1.74-1.14-1.74-2.4A3.93,3.93,0,0,1,60.09,4.44Z"/><path class="cls-1" d="M3.39,108.09q.6-.48,4-.48,5.34,0,8.07,1.86t3.87,6.36a11.43,11.43,0,0,1,.48,2.94q0,2.28-2.34,5.64A7.28,7.28,0,0,0,16.35,126a7.93,7.93,0,0,0,.78,1,13.62,13.62,0,0,1,4,9.36,8.45,8.45,0,0,1-2.76,6.54,9.69,9.69,0,0,1-3.24,1.71,11.64,11.64,0,0,1-3.72.75,3,3,0,0,1-1.62-.48q-.78-.48-.78-1t.84-1a4.74,4.74,0,0,1,2-.63,10.55,10.55,0,0,0,3.36-1,5,5,0,0,0,3.06-4.68,3.32,3.32,0,0,0,0-.36,3.07,3.07,0,0,1,0-.36A11.32,11.32,0,0,0,14.73,129q-2-2-2-2.76a3.48,3.48,0,0,1,.84-1.86,27.65,27.65,0,0,0,1.92-3.06,6.59,6.59,0,0,0,.9-2.82c0-.08,0-.24,0-.48s0-.44,0-.6q-.48-5.94-5.46-7a12.32,12.32,0,0,0-3-.36q-1.32,0-1.5.3-.36.54-.54,17.46v2.64q0,5.1.18,8t.12,3.3a3.87,3.87,0,0,1-.3,1.92,2.12,2.12,0,0,1-1.38.6,5.18,5.18,0,0,1-.78.12q-.84,0-1-1.77t-.45-9.39q-.06-1.8-.12-3.75t-.09-3q0-1,0-1.77,0-1.2.06-2.22t.21-3q.15-2,.27-4.5.18-4.44.33-5.46A2.31,2.31,0,0,1,3.39,108.09Z"/><path class="cls-1" d="M27.75,109.41q.48-1.08,1.32-1.08l.18,0a.94.94,0,0,0,.24,0,3.1,3.1,0,0,0,1,.12q.84,0,.84,3.48,0,.72-.12,3.84-.3,5-.54,16.26-.18,8.46-.39,10.23t-1,1.77l-.21,0-.27,0a1.19,1.19,0,0,1-.93-.45,5.57,5.57,0,0,1-.42-2.1q-.15-1.71-.15-5.67,0-5.46.06-9.54Q27.45,110.13,27.75,109.41Z"/><path class="cls-1" d="M41.67,108.09a1.64,1.64,0,0,1,1.08-.24,12.37,12.37,0,0,1,2.94.42,7.84,7.84,0,0,1,2.46,1,8,8,0,0,1,2.73,3.57,13.1,13.1,0,0,1,1,5.25c0,.12,0,.29,0,.51s0,.39,0,.51A11.1,11.1,0,0,1,49,125.91a10.7,10.7,0,0,0-1.32,1.56q0,.18,1.71,4.83T51.93,139a15.13,15.13,0,0,1,1.2,3.78,1.67,1.67,0,0,1-.36,1,1,1,0,0,1-.9.48q-1,0-1.68-1.56t-2.88-8.19a62.24,62.24,0,0,1-2.16-7.23,4.56,4.56,0,0,1,1.26-2.46,19.35,19.35,0,0,0,2-3,5.91,5.91,0,0,0,.48-2.52c0-.12,0-.3,0-.54s0-.44,0-.6q-.24-5.28-3.42-6.9a4.63,4.63,0,0,0-1.86-.6q-.12,0-1.8.24l-2.16.48.12,4.92q.36,8.4.66,12.42.36,5,.36,8.28,0,6.72-1.8,6.72a1.13,1.13,0,0,1-1-.6q-.24-.66-.48-16.74-.06-4.32-.06-10.08,0-3.12,0-4.65a4.53,4.53,0,0,1,.48-2.25q.45-.72.66-.78a13.42,13.42,0,0,1,1.35-.18A5.46,5.46,0,0,0,41.67,108.09Z"/><path class="cls-1" d="M67.29,107.85a13.65,13.65,0,0,1,2.7-.54h.18a5.39,5.39,0,0,1,3.78,1.5A5.69,5.69,0,0,1,75.36,111a6.87,6.87,0,0,1,.63,2.58,4.66,4.66,0,0,1-.33,1.65,2.33,2.33,0,0,1-.69,1.11,1.89,1.89,0,0,1-.66.24,1.44,1.44,0,0,1-1.17-.72,2.83,2.83,0,0,1-.51-1.68,3.15,3.15,0,0,0-1.05-2.28A3.64,3.64,0,0,0,69,111a3.1,3.1,0,0,0-2.58,1.14,16.91,16.91,0,0,0-2,4.74,35.9,35.9,0,0,0-1.68,11.28,21.47,21.47,0,0,0,1.38,8.52,9.2,9.2,0,0,0,2.31,3.18A4.16,4.16,0,0,0,69.09,141q2.46,0,3.18-3.24t1.86-3.24a1.77,1.77,0,0,1,1,.48,2.15,2.15,0,0,1,.6,1.68,7.09,7.09,0,0,1-.75,2.94,7.84,7.84,0,0,1-2,2.7A5.77,5.77,0,0,1,69.09,144c-.2,0-.66,0-1.38-.12a7.55,7.55,0,0,1-3.12-1,8.5,8.5,0,0,1-2.34-2.52,14.1,14.1,0,0,1-2.1-4.77,36.9,36.9,0,0,1-.6-7.05,39.36,39.36,0,0,1,3.3-16.86A8.87,8.87,0,0,1,64.59,109,6.62,6.62,0,0,1,67.29,107.85Z"/><path class="cls-1" d="M82.65,109.35a.63.63,0,0,1,.6-.48q.54,0,1,1t.66,8.76l.3,7.68,4.08.12q1,.06,2.4.06a5,5,0,0,0,1.47-.12.63.63,0,0,0,.33-.54q.12-.42.24-8.34.12-6.18.33-7.41a1.28,1.28,0,0,1,1.35-1.23,1.16,1.16,0,0,1,1.08.84q.3.78.3,7.74,0,2.7-.24,17.22-.12,6.66-.24,7.83t-.6,1.35a1.82,1.82,0,0,1-1.38.06q-.48-.12-.57-1.08t-.09-6.3v-7.26H90a21,21,0,0,0-4.32.24q-.48.12-.63,1.08T84.69,136a59.8,59.8,0,0,1-.66,7.08,1,1,0,0,1-.9.66.89.89,0,0,1-.9-.54q-.12-.18-.12-6.24,0-7.56.18-17.37T82.65,109.35Z"/></g></g></svg>